<svg viewBox="0 0 43 43" fill="none" xmlns="http://www.w3.org/2000/svg">
  <path d="M22.2509 23.9961H12.6277L21.791 41.3686C21.8712 41.5208 22.0896 41.5194 22.1679 41.3663L26.5057 32.888C26.5989 32.7057 26.5989 32.4897 26.5056 32.3074L22.2509 23.9961Z" fill="url(#paint0_linear_103_911)"/>
  <path d="M34.0325 17.6262L31.1323 23.7241C30.9915 24.0201 30.693 24.2088 30.3651 24.2088H12.7429L15.9287 15.501H32.69C33.7824 15.501 34.5017 16.6397 34.0325 17.6262Z" fill="url(#paint1_linear_103_911)"/>
  <path d="M12.743 24.2087L4.56616 9.12939H18.3712L12.743 24.2087Z" fill="url(#paint2_linear_103_911)"/>
  <path d="M18.3713 9.12917H4.56628L1.63095 3.53157C0.889376 2.11741 1.91507 0.421387 3.51188 0.421387H21.2385L18.3713 9.12917Z" fill="#209454"/>
  <path d="M18.3711 9.12917L21.2383 0.421387H39.7788C40.8777 0.421387 41.5968 1.5723 41.115 2.55988L38.3759 8.175C38.0912 8.75882 37.4984 9.12917 36.8489 9.12917H18.3711Z" fill="url(#paint3_linear_103_911)"/>
  <defs>
    <linearGradient id="paint0_linear_103_911" x1="12.5306" y1="18.2617" x2="12.7404" y2="31.4317" gradientUnits="userSpaceOnUse">
      <stop stop-color="#0A2E1A"/>
      <stop offset="1" stop-color="#209454"/>
    </linearGradient>
    <linearGradient id="paint1_linear_103_911" x1="19.7516" y1="22.2973" x2="11.4686" y2="18.5806" gradientUnits="userSpaceOnUse">
      <stop stop-color="#209454"/>
      <stop offset="1" stop-color="#0A2E1A"/>
    </linearGradient>
    <linearGradient id="paint2_linear_103_911" x1="0.424658" y1="4.13835" x2="4.40392" y2="17.0127" gradientUnits="userSpaceOnUse">
      <stop stop-color="#0A2E1A"/>
      <stop offset="1" stop-color="#209454"/>
    </linearGradient>
    <linearGradient id="paint3_linear_103_911" x1="33.9814" y1="3.50097" x2="9.34323" y2="11.4795" gradientUnits="userSpaceOnUse">
      <stop stop-color="#209454"/>
      <stop offset="1" stop-color="#0A2E1A"/>
    </linearGradient>
  </defs>
</svg>