<svg width="206" height="43" viewBox="0 0 206 43" fill="none" xmlns="http://www.w3.org/2000/svg">
<path d="M22.2509 23.9961H12.6277L21.791 41.3686C21.8712 41.5208 22.0896 41.5194 22.1679 41.3663L26.5057 32.888C26.5989 32.7057 26.5989 32.4897 26.5056 32.3074L22.2509 23.9961Z" fill="url(#paint0_linear_103_911)"/>
<path d="M34.0325 17.6262L31.1323 23.7241C30.9915 24.0201 30.693 24.2088 30.3651 24.2088H12.7429L15.9287 15.501H32.69C33.7824 15.501 34.5017 16.6397 34.0325 17.6262Z" fill="url(#paint1_linear_103_911)"/>
<path d="M12.743 24.2087L4.56616 9.12939H18.3712L12.743 24.2087Z" fill="url(#paint2_linear_103_911)"/>
<path d="M18.3713 9.12917H4.56628L1.63095 3.53157C0.889376 2.11741 1.91507 0.421387 3.51188 0.421387H21.2385L18.3713 9.12917Z" fill="#209454"/>
<path d="M18.3711 9.12917L21.2383 0.421387H39.7788C40.8777 0.421387 41.5968 1.5723 41.115 2.55988L38.3759 8.175C38.0912 8.75882 37.4984 9.12917 36.8489 9.12917H18.3711Z" fill="url(#paint3_linear_103_911)"/>
<path d="M195.398 35.0902C193.321 35.0902 191.486 34.6721 189.895 33.8358C188.303 32.9725 187.048 31.7181 186.131 30.0725C185.241 28.3999 184.796 26.3496 184.796 23.9217C184.796 21.4398 185.255 19.3895 186.172 17.7709C187.116 16.1253 188.384 14.8978 189.976 14.0885C191.567 13.2792 193.361 12.8745 195.357 12.8745C197.435 12.8745 199.269 13.2927 200.861 14.129C202.452 14.9652 203.707 16.2197 204.624 17.8923C205.541 19.5379 206 21.5882 206 24.0431C206 26.525 205.541 28.5887 204.624 30.2343C203.707 31.88 202.439 33.1074 200.82 33.9167C199.229 34.6991 197.421 35.0902 195.398 35.0902ZM195.6 31.2055C196.733 31.2055 197.691 30.9492 198.473 30.4367C199.256 29.8971 199.849 29.1013 200.254 28.0492C200.685 26.9971 200.901 25.7426 200.901 24.2859C200.901 22.7482 200.672 21.4398 200.213 20.3607C199.782 19.2546 199.148 18.4048 198.311 17.8113C197.502 17.2178 196.477 16.9211 195.236 16.9211C194.157 16.9211 193.213 17.1909 192.403 17.7304C191.594 18.243 190.974 19.0118 190.542 20.037C190.137 21.0621 189.935 22.33 189.935 23.8407C189.935 26.2147 190.434 28.0357 191.432 29.3036C192.457 30.5716 193.847 31.2055 195.6 31.2055Z" fill="#FBFFFD"/>
<path d="M172.086 35.0902C170.387 35.0902 168.863 34.8474 167.514 34.3619C166.192 33.8763 165.072 33.1749 164.155 32.2576C163.238 31.3134 162.536 30.1804 162.051 28.8585C161.565 27.5366 161.323 26.0394 161.323 24.3668C161.323 22.6942 161.552 21.1565 162.01 19.7537C162.496 18.3509 163.184 17.1369 164.074 16.1118C164.964 15.0866 166.044 14.2908 167.311 13.7243C168.606 13.1578 170.077 12.8745 171.722 12.8745C173.26 12.8745 174.636 13.1308 175.85 13.6434C177.064 14.1559 178.089 14.9248 178.925 15.9499C179.761 16.9481 180.382 18.2025 180.787 19.7132C181.191 21.197 181.326 22.9235 181.191 24.8929L164.641 25.0143V22.0603L178.237 21.9389L176.457 23.598C176.619 22.0603 176.497 20.8058 176.093 19.8346C175.688 18.8365 175.108 18.1081 174.352 17.6495C173.597 17.1639 172.734 16.9211 171.763 16.9211C170.657 16.9211 169.685 17.2178 168.849 17.8113C168.013 18.3779 167.365 19.2142 166.907 20.3202C166.475 21.3993 166.259 22.7212 166.259 24.2859C166.259 26.6329 166.772 28.3864 167.797 29.5464C168.849 30.7064 170.279 31.2865 172.086 31.2865C172.896 31.2865 173.57 31.192 174.11 31.0032C174.676 30.7874 175.148 30.5176 175.526 30.1939C175.904 29.8432 176.2 29.452 176.416 29.0204C176.659 28.5887 176.848 28.1301 176.983 27.6445L181.434 28.6562C181.218 29.6543 180.868 30.5446 180.382 31.3269C179.896 32.1093 179.262 32.7837 178.48 33.3502C177.725 33.9167 176.821 34.3484 175.769 34.6451C174.717 34.9419 173.489 35.0902 172.086 35.0902Z" fill="#FBFFFD"/>
<path d="M148.779 35.0902C147.35 35.0902 146.055 34.9419 144.895 34.6451C143.762 34.3753 142.79 33.9842 141.981 33.4716C141.172 32.9321 140.524 32.2981 140.039 31.5697C139.553 30.8144 139.256 29.9781 139.148 29.0608L143.155 27.5636C143.209 28.265 143.478 28.899 143.964 29.4655C144.449 30.005 145.124 30.4367 145.987 30.7604C146.85 31.0841 147.889 31.246 149.103 31.246C150.452 31.246 151.491 31.0437 152.219 30.639C152.974 30.2074 153.352 29.6004 153.352 28.818C153.352 28.2515 153.15 27.8064 152.745 27.4827C152.34 27.132 151.747 26.8487 150.964 26.6329C150.209 26.3901 149.292 26.1608 148.213 25.945C147.215 25.7292 146.203 25.4864 145.178 25.2166C144.18 24.9198 143.249 24.5422 142.386 24.0835C141.549 23.598 140.861 22.9775 140.322 22.2221C139.809 21.4398 139.553 20.4551 139.553 19.2681C139.553 17.9732 139.89 16.8536 140.565 15.9094C141.266 14.9652 142.264 14.2234 143.559 13.6838C144.881 13.1443 146.473 12.8745 148.334 12.8745C150.088 12.8745 151.598 13.1173 152.866 13.6029C154.161 14.0885 155.213 14.7899 156.023 15.7071C156.832 16.5974 157.345 17.663 157.56 18.9039L153.352 20.2393C153.271 19.4839 153.015 18.85 152.583 18.3374C152.151 17.7979 151.571 17.3932 150.843 17.1234C150.115 16.8536 149.265 16.7188 148.294 16.7188C147.053 16.7188 146.082 16.9346 145.38 17.3662C144.679 17.7979 144.328 18.3779 144.328 19.1062C144.328 19.6997 144.544 20.1718 144.976 20.5226C145.434 20.8733 146.055 21.1565 146.837 21.3723C147.646 21.5882 148.563 21.804 149.589 22.0198C150.668 22.2356 151.706 22.4919 152.704 22.7886C153.73 23.0584 154.647 23.4226 155.456 23.8812C156.265 24.3398 156.913 24.9468 157.399 25.7022C157.884 26.4306 158.127 27.3748 158.127 28.5348C158.127 29.9376 157.749 31.1381 156.994 32.1362C156.239 33.1074 155.159 33.8493 153.757 34.3619C152.381 34.8474 150.722 35.0902 148.779 35.0902Z" fill="#FBFFFD"/>
<path d="M129.737 34.5643V13.4007H134.836V34.5643H129.737ZM132.286 10.0825C131.261 10.0825 130.465 9.86664 129.899 9.435C129.359 8.97639 129.09 8.32894 129.09 7.49264C129.09 6.65635 129.359 6.02239 129.899 5.59075C130.465 5.13214 131.261 4.90283 132.286 4.90283C133.365 4.90283 134.175 5.11865 134.714 5.55029C135.254 5.98192 135.524 6.62937 135.524 7.49264C135.524 8.32894 135.24 8.97639 134.674 9.435C134.134 9.86664 133.339 10.0825 132.286 10.0825Z" fill="#FBFFFD"/>
<path d="M112.666 34.5643V23.9622V13.4006H116.955L116.874 20.6845H117.602C117.845 18.9579 118.223 17.5281 118.735 16.3951C119.248 15.2351 119.963 14.3718 120.88 13.8053C121.797 13.2118 122.93 12.915 124.279 12.915C124.549 12.915 124.832 12.9285 125.129 12.9555C125.453 12.9825 125.803 13.0499 126.181 13.1578L125.979 18.5398C125.547 18.3779 125.102 18.27 124.643 18.2161C124.212 18.1351 123.807 18.0947 123.429 18.0947C122.377 18.0947 121.46 18.3644 120.678 18.904C119.922 19.4435 119.302 20.2124 118.816 21.2105C118.358 22.1817 118.007 23.3417 117.764 24.6906V34.5643H112.666Z" fill="#FBFFFD"/>
<path d="M87.6113 34.5642V21.6556V13.4006H91.8602L91.7388 19.8751H92.4672C92.8449 18.2834 93.344 16.975 93.9645 15.9499C94.6119 14.9248 95.4347 14.1559 96.4329 13.6434C97.431 13.1308 98.5911 12.8745 99.9129 12.8745C102.314 12.8745 104.135 13.7243 105.376 15.4239C106.644 17.1234 107.278 19.7537 107.278 23.3147V34.5642H102.139V23.8407C102.139 21.5477 101.788 19.8751 101.086 18.823C100.412 17.7439 99.4004 17.2044 98.0515 17.2044C96.9185 17.2044 95.9608 17.5685 95.1784 18.2969C94.3961 18.9983 93.7891 19.9425 93.3575 21.1295C92.9528 22.2896 92.737 23.571 92.71 24.9738V34.5642H87.6113Z" fill="#FBFFFD"/>
<path d="M76.7837 34.5643V13.4007H81.8824V34.5643H76.7837ZM79.333 10.0825C78.3079 10.0825 77.5121 9.86664 76.9455 9.435C76.406 8.97639 76.1362 8.32894 76.1362 7.49264C76.1362 6.65635 76.406 6.02239 76.9455 5.59075C77.5121 5.13214 78.3079 4.90283 79.333 4.90283C80.4121 4.90283 81.2214 5.11865 81.761 5.55029C82.3005 5.98192 82.5703 6.62937 82.5703 7.49264C82.5703 8.32894 82.287 8.97639 81.7205 9.435C81.181 9.86664 80.3851 10.0825 79.333 10.0825Z" fill="#FBFFFD"/>
<path d="M53.3169 34.5644V7.85693H58.4156V34.5644H53.3169ZM55.6234 24.0837V19.8348H71.1219V24.0837H55.6234ZM55.6234 12.2677V7.85693H72.7405V12.2677H55.6234Z" fill="#FBFFFD"/>
<defs>
<linearGradient id="paint0_linear_103_911" x1="12.5306" y1="18.2617" x2="12.7404" y2="31.4317" gradientUnits="userSpaceOnUse">
<stop stop-color="#0A2E1A"/>
<stop offset="1" stop-color="#209454"/>
</linearGradient>
<linearGradient id="paint1_linear_103_911" x1="19.7516" y1="22.2973" x2="11.4686" y2="18.5806" gradientUnits="userSpaceOnUse">
<stop stop-color="#209454"/>
<stop offset="1" stop-color="#0A2E1A"/>
</linearGradient>
<linearGradient id="paint2_linear_103_911" x1="0.424658" y1="4.13835" x2="4.40392" y2="17.0127" gradientUnits="userSpaceOnUse">
<stop stop-color="#0A2E1A"/>
<stop offset="1" stop-color="#209454"/>
</linearGradient>
<linearGradient id="paint3_linear_103_911" x1="33.9814" y1="3.50097" x2="9.34323" y2="11.4795" gradientUnits="userSpaceOnUse">
<stop stop-color="#209454"/>
<stop offset="1" stop-color="#0A2E1A"/>
</linearGradient>
</defs>
</svg>
